<svg xmlns="http://www.w3.org/2000/svg" version="1.1" xmlns:xlink="http://www.w3.org/1999/xlink" xmlns:svgjs="http://svgjs.com/svgjs" width="1440" height="560" preserveAspectRatio="none" viewBox="0 0 1440 560"><g mask="url(&quot;#SvgjsMask1000&quot;)" fill="none"><rect width="1440" height="560" x="0" y="0" fill="#0e2a47"></rect><path d="M0,599.825C111.625,615.878,221.087,551.712,309.897,482.21C393.997,416.394,443.882,320.006,484.011,221.04C522.726,125.561,555.959,24.049,536.716,-77.168C517.86,-176.349,439.924,-247.958,379.475,-328.817C313.946,-416.471,273.311,-542.455,167.625,-570.878C61.854,-599.324,-31.464,-495.776,-137.364,-467.817C-247.456,-438.752,-396.238,-493.766,-465.825,-403.64C-536.426,-312.202,-457.737,-179.693,-448.755,-64.521C-441.937,22.902,-452.764,110.441,-419.411,191.538C-385.188,274.752,-321.934,337.853,-257.461,400.616C-178.101,477.871,-109.625,584.059,0,599.825" fill="#0b2239"></path><path d="M1440 1143.355C1551.79 1162.5900000000001 1660.801 1111.3780000000002 1763.776 1063.805 1880.397 1009.927 2034.46 971.895 2074.998 849.994 2116.131 726.302 2007.452 605.574 1955.9859999999999 485.812 1917.451 396.14 1861.937 321.547 1811.897 237.75 1749.215 132.78199999999998 1734.5-15.240999999999985 1624.686-68.98199999999997 1514.722-122.79600000000005 1383.453-66.923 1267.094-28.864000000000033 1153.643 8.244000000000028 1024.145 44.33699999999999 963.643 147.23399999999998 904.33 248.10899999999998 968.278 374.363 961.318 491.176 955.1220000000001 595.155 881.154 700.708 925.034 795.177 968.904 889.625 1094.4270000000001 905.152 1180.6979999999999 963.481 1269.644 1023.619 1334.186 1125.149 1440 1143.355" fill="#113255"></path></g><defs><mask id="SvgjsMask1000"><rect width="1440" height="560" fill="#ffffff"></rect></mask></defs></svg>